<svg xmlns="http://www.w3.org/2000/svg" width="480" height="260" style="background:#fff">
  <rect x="0" y="0" width="480" height="260" fill="#fff"/>

  <text x="240" y="24" font-family="monospace" font-size="13" text-anchor="middle" fill="#333" font-weight="bold">chat_24 rename_titles</text>

  <!-- Group renames -->
  <text x="240" y="48" font-family="monospace" font-size="10" text-anchor="middle" fill="#555" font-weight="bold">Group labels (scenarios.html)</text>

  <rect x="20" y="56" width="210" height="20" rx="3" fill="#fef2f2" stroke="#dc2626" stroke-width="1"/>
  <text x="125" y="70" font-family="monospace" font-size="8" text-anchor="middle" fill="#dc2626">Kids setup issues</text>
  <text x="240" y="70" font-family="monospace" font-size="9" fill="#555">→</text>
  <rect x="252" y="56" width="210" height="20" rx="3" fill="#e6f4ea" stroke="#34a853" stroke-width="1"/>
  <text x="357" y="70" font-family="monospace" font-size="8" text-anchor="middle" fill="#1b7a2b">Setup issues</text>

  <rect x="20" y="80" width="210" height="20" rx="3" fill="#fef2f2" stroke="#dc2626" stroke-width="1"/>
  <text x="125" y="94" font-family="monospace" font-size="8" text-anchor="middle" fill="#dc2626">Message exchange issues</text>
  <text x="240" y="94" font-family="monospace" font-size="9" fill="#555">→</text>
  <rect x="252" y="80" width="210" height="20" rx="3" fill="#e6f4ea" stroke="#34a853" stroke-width="1"/>
  <text x="357" y="94" font-family="monospace" font-size="8" text-anchor="middle" fill="#1b7a2b">Message issues</text>

  <!-- Scenario renames -->
  <text x="240" y="120" font-family="monospace" font-size="10" text-anchor="middle" fill="#555" font-weight="bold">Scenario titles (scenarios.js)</text>

  <rect x="20" y="128" width="220" height="20" rx="3" fill="#fef2f2" stroke="#dc2626" stroke-width="1"/>
  <text x="130" y="142" font-family="monospace" font-size="7" text-anchor="middle" fill="#dc2626">2A Kid error: incorrect keyword</text>
  <text x="246" y="142" font-family="monospace" font-size="9" fill="#555">→</text>
  <rect x="252" y="128" width="220" height="20" rx="3" fill="#e6f4ea" stroke="#34a853" stroke-width="1"/>
  <text x="362" y="142" font-family="monospace" font-size="8" text-anchor="middle" fill="#1b7a2b">Kid error: Keyword wrong</text>

  <rect x="20" y="152" width="220" height="20" rx="3" fill="#fef2f2" stroke="#dc2626" stroke-width="1"/>
  <text x="130" y="166" font-family="monospace" font-size="7" text-anchor="middle" fill="#dc2626">2B Phone number is incomplete</text>
  <text x="246" y="166" font-family="monospace" font-size="9" fill="#555">→</text>
  <rect x="252" y="152" width="220" height="20" rx="3" fill="#e6f4ea" stroke="#34a853" stroke-width="1"/>
  <text x="362" y="166" font-family="monospace" font-size="7" text-anchor="middle" fill="#1b7a2b">Kid error: Phone number incomplete</text>

  <rect x="20" y="176" width="220" height="20" rx="3" fill="#fef2f2" stroke="#dc2626" stroke-width="1"/>
  <text x="130" y="190" font-family="monospace" font-size="7" text-anchor="middle" fill="#dc2626">3A Reschedule: call back in ~1hr</text>
  <text x="246" y="190" font-family="monospace" font-size="9" fill="#555">→</text>
  <rect x="252" y="176" width="220" height="20" rx="3" fill="#e6f4ea" stroke="#34a853" stroke-width="1"/>
  <text x="362" y="190" font-family="monospace" font-size="8" text-anchor="middle" fill="#1b7a2b">Grandma: Call back</text>

  <rect x="20" y="200" width="220" height="20" rx="3" fill="#fef2f2" stroke="#dc2626" stroke-width="1"/>
  <text x="130" y="214" font-family="monospace" font-size="7" text-anchor="middle" fill="#dc2626">3B kid error: text instead of audio</text>
  <text x="246" y="214" font-family="monospace" font-size="9" fill="#555">→</text>
  <rect x="252" y="200" width="220" height="20" rx="3" fill="#e6f4ea" stroke="#34a853" stroke-width="1"/>
  <text x="362" y="214" font-family="monospace" font-size="8" text-anchor="middle" fill="#1b7a2b">Kid error: Text to Grandma</text>

  <rect x="20" y="224" width="220" height="20" rx="3" fill="#fef2f2" stroke="#dc2626" stroke-width="1"/>
  <text x="130" y="238" font-family="monospace" font-size="7" text-anchor="middle" fill="#dc2626">3C No answer / voicemail / retry</text>
  <text x="246" y="238" font-family="monospace" font-size="9" fill="#555">→</text>
  <rect x="252" y="224" width="220" height="20" rx="3" fill="#e6f4ea" stroke="#34a853" stroke-width="1"/>
  <text x="362" y="238" font-family="monospace" font-size="8" text-anchor="middle" fill="#1b7a2b">Grandma: No answer</text>
</svg>
