<svg xmlns="http://www.w3.org/2000/svg" width="500" height="250" style="background:#fff">
  <style>
    text { font-family: monospace; fill: #222; }
    .title { font-size: 13px; font-weight: bold; }
    .label { font-size: 10px; }
    .removed { fill: #fce4e4; stroke: #c44; stroke-width: 1.5; }
    .strike { stroke: #c44; stroke-width: 2; }
    .x-mark { font-size: 11px; fill: #c44; font-weight: bold; }
  </style>

  <text x="250" y="22" text-anchor="middle" class="title">chat_64: Unused CSS Selectors Removed</text>
  <text x="250" y="42" text-anchor="middle" class="label" fill="#888">scenarios.css -- 5 selectors deleted</text>

  <!-- Row 1: .outline_title -->
  <rect x="100" y="55" width="300" height="28" rx="3" class="removed"/>
  <text x="250" y="74" text-anchor="middle" class="label">.outline_title</text>
  <line x1="110" y1="69" x2="390" y2="69" class="strike"/>
  <text x="420" y="74" class="x-mark">X</text>

  <!-- Row 2: .cell_kid -->
  <rect x="100" y="91" width="300" height="28" rx="3" class="removed"/>
  <text x="250" y="110" text-anchor="middle" class="label">.cell_kid</text>
  <line x1="110" y1="105" x2="390" y2="105" class="strike"/>
  <text x="420" y="110" class="x-mark">X</text>

  <!-- Row 3: .cell_sc -->
  <rect x="100" y="127" width="300" height="28" rx="3" class="removed"/>
  <text x="250" y="146" text-anchor="middle" class="label">.cell_sc</text>
  <line x1="110" y1="141" x2="390" y2="141" class="strike"/>
  <text x="420" y="146" class="x-mark">X</text>

  <!-- Row 4: .cell_gma -->
  <rect x="100" y="163" width="300" height="28" rx="3" class="removed"/>
  <text x="250" y="182" text-anchor="middle" class="label">.cell_gma</text>
  <line x1="110" y1="177" x2="390" y2="177" class="strike"/>
  <text x="420" y="182" class="x-mark">X</text>

  <!-- Row 5: .cell_es -->
  <rect x="100" y="199" width="300" height="28" rx="3" class="removed"/>
  <text x="250" y="218" text-anchor="middle" class="label">.cell_es</text>
  <line x1="110" y1="213" x2="390" y2="213" class="strike"/>
  <text x="420" y="218" class="x-mark">X</text>
</svg>