<svg xmlns="http://www.w3.org/2000/svg" width="500" height="300" style="background:#fff">
  <rect x="0" y="0" width="500" height="300" fill="#fff"/>

  <text x="250" y="24" font-family="monospace" font-size="13" text-anchor="middle" fill="#333" font-weight="bold">chat_4 — Rename paul/ to doc/</text>

  <!-- Before -->
  <text x="130" y="55" font-family="monospace" font-size="11" text-anchor="middle" fill="#c53929" font-weight="bold">Before</text>

  <rect x="30" y="65" width="200" height="30" rx="4" fill="#fce8e6" stroke="#c53929" stroke-width="1"/>
  <text x="130" y="85" font-family="monospace" font-size="10" text-anchor="middle" fill="#a02919">paul/  (chat log, svg)</text>

  <rect x="30" y="105" width="200" height="30" rx="4" fill="#fce8e6" stroke="#c53929" stroke-width="1"/>
  <text x="130" y="125" font-family="monospace" font-size="10" text-anchor="middle" fill="#a02919">doc/codename_index.md</text>

  <!-- Arrow -->
  <defs>
    <marker id="arr" markerWidth="8" markerHeight="6" refX="8" refY="3" orient="auto">
      <path d="M0,0 L8,3 L0,6 Z" fill="#888"/>
    </marker>
  </defs>
  <line x1="240" y1="100" x2="268" y2="100" stroke="#888" stroke-width="1.5" marker-end="url(#arr)"/>

  <!-- After -->
  <text x="380" y="55" font-family="monospace" font-size="11" text-anchor="middle" fill="#34a853" font-weight="bold">After</text>

  <rect x="278" y="65" width="200" height="30" rx="4" fill="#e6f4ea" stroke="#34a853" stroke-width="1"/>
  <text x="378" y="85" font-family="monospace" font-size="10" text-anchor="middle" fill="#1b7a2b">doc/  (unified)</text>

  <rect x="278" y="105" width="200" height="30" rx="4" fill="#e6f4ea" stroke="#34a853" stroke-width="1"/>
  <text x="378" y="125" font-family="monospace" font-size="10" text-anchor="middle" fill="#1b7a2b">doc/codename_index.txt</text>

  <!-- Files updated -->
  <text x="250" y="170" font-family="monospace" font-size="11" text-anchor="middle" fill="#555" font-weight="bold">References Updated</text>

  <rect x="30" y="182" width="140" height="28" rx="4" fill="#e8f0fe" stroke="#4285f4" stroke-width="1"/>
  <text x="100" y="201" font-family="monospace" font-size="9" text-anchor="middle" fill="#333">prompt.mdc</text>

  <rect x="182" y="182" width="140" height="28" rx="4" fill="#e8f0fe" stroke="#4285f4" stroke-width="1"/>
  <text x="252" y="201" font-family="monospace" font-size="9" text-anchor="middle" fill="#333">codename.mdc</text>

  <rect x="334" y="182" width="140" height="28" rx="4" fill="#e8f0fe" stroke="#4285f4" stroke-width="1"/>
  <text x="404" y="201" font-family="monospace" font-size="9" text-anchor="middle" fill="#333">outline.mdc</text>

  <!-- Result -->
  <rect x="90" y="235" width="320" height="40" rx="6" fill="#e6f4ea" stroke="#34a853" stroke-width="1.5"/>
  <text x="250" y="252" font-family="monospace" font-size="10" text-anchor="middle" fill="#1b7a2b" font-weight="bold">All paul/ refs -> doc/</text>
  <text x="250" y="266" font-family="monospace" font-size="9" text-anchor="middle" fill="#333">494 codenames in .txt format</text>
</svg>
